<svg xmlns="http://www.w3.org/2000/svg" width="55" height="55" viewBox="0 0 55 55"><defs><style>.a{fill:rgba(255,255,255,0);stroke-width:3px;}.a,.b{stroke:#f94545;}.b,.g{fill:#f94545;}.c,.d{fill:#fff;}.d{stroke:#fff;}.e,.g{stroke:none;}.f{fill:none;}</style></defs><g transform="translate(-30 -84)"><g class="a" transform="translate(30 84)"><circle class="e" cx="27.5" cy="27.5" r="27.5"/><circle class="f" cx="27.5" cy="27.5" r="26"/></g><g class="b" transform="translate(46 103)"><circle class="e" cx="2" cy="2" r="2"/><circle class="f" cx="2" cy="2" r="1.5"/></g><g class="b" transform="translate(66 103)"><circle class="e" cx="2" cy="2" r="2"/><circle class="f" cx="2" cy="2" r="1.5"/></g><g class="c" transform="translate(48 112)"><path class="e" d="M 10 18.5 C 5.313079833984375 18.5 1.5 14.68692016601563 1.5 10 C 1.5 5.313079833984375 5.313079833984375 1.5 10 1.5 C 14.68692016601563 1.5 18.5 5.313079833984375 18.5 10 C 18.5 14.68692016601563 14.68692016601563 18.5 10 18.5 Z"/><path class="g" d="M 10 3 C 6.140190124511719 3 3 6.140190124511719 3 10 C 3 13.85980987548828 6.140190124511719 17 10 17 C 13.85980987548828 17 17 13.85980987548828 17 10 C 17 6.140190124511719 13.85980987548828 3 10 3 M 10 0 C 15.52285003662109 0 20 4.477149963378906 20 10 C 20 15.52285003662109 15.52285003662109 20 10 20 C 4.477149963378906 20 0 15.52285003662109 0 10 C 0 4.477149963378906 4.477149963378906 0 10 0 Z"/></g><g class="d" transform="translate(46 122)"><rect class="e" width="22" height="10"/><rect class="f" x="0.5" y="0.5" width="21" height="9"/></g></g></svg>