<svg xmlns="http://www.w3.org/2000/svg" width="55" height="55" viewBox="0 0 55 55"><defs><style>.a,.c,.f{fill:none;}.a,.b{stroke:#de7373;}.a{stroke-width:3px;}.b,.g{fill:#de7373;}.d{fill:#fff;stroke:#fff;}.e,.g{stroke:none;}</style></defs><g transform="translate(-30 -84)"><g class="a" transform="translate(30 84)"><circle class="e" cx="27.5" cy="27.5" r="27.5"/><circle class="f" cx="27.5" cy="27.5" r="26"/></g><g class="b" transform="translate(46 103)"><circle class="e" cx="2" cy="2" r="2"/><circle class="f" cx="2" cy="2" r="1.5"/></g><g class="b" transform="translate(66 103)"><circle class="e" cx="2" cy="2" r="2"/><circle class="f" cx="2" cy="2" r="1.5"/></g><g class="c" transform="translate(48 115.799)"><path class="e" d="M10,0c5.523,0,10,3.627,10,8.1s-4.477,8.1-10,8.1S0,12.574,0,8.1,4.477,0,10,0Z"/><path class="g" d="M 10 2.999999046325684 C 8.042929649353027 2.999999046325684 6.153889656066895 3.620978355407715 4.817259788513184 4.703708648681641 C 3.645380020141602 5.652978897094727 3 6.859298706054688 3 8.100448608398438 C 3 9.341598510742188 3.645380020141602 10.54791831970215 4.817259788513184 11.49718856811523 C 6.153889656066895 12.57991886138916 8.042929649353027 13.20089912414551 10 13.20089912414551 C 11.95707035064697 13.20089912414551 13.84610939025879 12.57991886138916 15.18274021148682 11.49718856811523 C 16.3546199798584 10.54791831970215 17 9.341598510742188 17 8.100448608398438 C 17 6.859298706054688 16.3546199798584 5.652978897094727 15.18274021148682 4.703708648681641 C 13.84610939025879 3.620978355407715 11.95707035064697 2.999999046325684 10 2.999999046325684 M 10 -1.9073486328125e-06 C 15.52285003662109 -1.9073486328125e-06 20 3.62669849395752 20 8.100448608398438 C 20 12.57419872283936 15.52285003662109 16.20089912414551 10 16.20089912414551 C 4.477149963378906 16.20089912414551 0 12.57419872283936 0 8.100448608398438 C 0 3.62669849395752 4.477149963378906 -1.9073486328125e-06 10 -1.9073486328125e-06 Z"/></g><g class="d" transform="translate(47 122)"><rect class="e" width="22" height="10"/><rect class="f" x="0.5" y="0.5" width="21" height="9"/></g></g></svg>