<svg xmlns="http://www.w3.org/2000/svg" width="55" height="55" viewBox="0 0 55 55"><defs><style>.a,.e{fill:none;}.a,.c{stroke:#aca8b9;}.a{stroke-width:3px;}.b,.c,.f{fill:#aca8b9;}.d,.f{stroke:none;}</style></defs><g transform="translate(-30 -84)"><g class="a" transform="translate(30 84)"><circle class="d" cx="27.5" cy="27.5" r="27.5"/><circle class="e" cx="27.5" cy="27.5" r="26"/></g><g class="b" transform="translate(45 103)"><path class="d" d="M 2 3.5 C 1.172899961471558 3.5 0.5 2.827100038528442 0.5 2 C 0.5 1.172899961471558 1.172899961471558 0.5 2 0.5 C 2.827100038528442 0.5 3.5 1.172899961471558 3.5 2 C 3.5 2.827100038528442 2.827100038528442 3.5 2 3.5 Z"/><path class="f" d="M 2 1 C 1.448600053787231 1 1 1.448600053787231 1 2 C 1 2.551399946212769 1.448600053787231 3 2 3 C 2.551399946212769 3 3 2.551399946212769 3 2 C 3 1.448600053787231 2.551399946212769 1 2 1 M 2 0 C 3.104569911956787 0 4 0.8954300880432129 4 2 C 4 3.104569911956787 3.104569911956787 4 2 4 C 0.8954300880432129 4 0 3.104569911956787 0 2 C 0 0.8954300880432129 0.8954300880432129 0 2 0 Z"/></g><g class="b" transform="translate(67 103)"><path class="d" d="M 2 3.5 C 1.172899961471558 3.5 0.5 2.827100038528442 0.5 2 C 0.5 1.172899961471558 1.172899961471558 0.5 2 0.5 C 2.827100038528442 0.5 3.5 1.172899961471558 3.5 2 C 3.5 2.827100038528442 2.827100038528442 3.5 2 3.5 Z"/><path class="f" d="M 2 1 C 1.448600053787231 1 1 1.448600053787231 1 2 C 1 2.551399946212769 1.448600053787231 3 2 3 C 2.551399946212769 3 3 2.551399946212769 3 2 C 3 1.448600053787231 2.551399946212769 1 2 1 M 2 0 C 3.104569911956787 0 4 0.8954300880432129 4 2 C 4 3.104569911956787 3.104569911956787 4 2 4 C 0.8954300880432129 4 0 3.104569911956787 0 2 C 0 0.8954300880432129 0.8954300880432129 0 2 0 Z"/></g><g class="c" transform="translate(47 119)"><rect class="d" width="22" height="3"/><rect class="e" x="0.5" y="0.5" width="21" height="2"/></g></g></svg>