<svg xmlns="http://www.w3.org/2000/svg" width="55" height="55" viewBox="0 0 55 55"><defs><style>.a,.c,.f{fill:none;}.a,.b{stroke:#00ff65;}.a{stroke-width:3px;}.b,.g{fill:#00ff65;}.d{fill:#fff;stroke:#fff;}.e,.g{stroke:none;}</style></defs><g transform="translate(-30 -84)"><g class="a" transform="translate(30 84)"><circle class="e" cx="27.5" cy="27.5" r="27.5"/><circle class="f" cx="27.5" cy="27.5" r="26"/></g><g class="b" transform="translate(46 103)"><circle class="e" cx="2" cy="2" r="2"/><circle class="f" cx="2" cy="2" r="1.5"/></g><g class="b" transform="translate(66 103)"><circle class="e" cx="2" cy="2" r="2"/><circle class="f" cx="2" cy="2" r="1.5"/></g><g class="c" transform="translate(48 108)"><path class="e" d="M10,0A10,10,0,1,1,0,10,10,10,0,0,1,10,0Z"/><path class="g" d="M 10 3 C 6.140190124511719 3 3 6.140190124511719 3 10 C 3 13.85980987548828 6.140190124511719 17 10 17 C 13.85980987548828 17 17 13.85980987548828 17 10 C 17 6.140190124511719 13.85980987548828 3 10 3 M 10 0 C 15.52285003662109 0 20 4.477149963378906 20 10 C 20 15.52285003662109 15.52285003662109 20 10 20 C 4.477149963378906 20 0 15.52285003662109 0 10 C 0 4.477149963378906 4.477149963378906 0 10 0 Z"/></g><g class="d" transform="translate(47 108)"><rect class="e" width="22" height="11"/><rect class="f" x="0.5" y="0.5" width="21" height="10"/></g></g></svg>