<svg xmlns="http://www.w3.org/2000/svg" width="31.439" height="20.315" viewBox="0 0 31.439 20.315"><g transform="translate(0 -10.143)"><circle cx="1.5" cy="1.5" r="1.5" transform="translate(0 27.458)"/><path d="M52.947,30.062Z" transform="translate(-21.766 -19.183)"/><path d="M37.141,30.062H15.532a1.5,1.5,0,1,1,0-3H37.141a1.5,1.5,0,1,1,0,3Z" transform="translate(-7.314 0.008)"/><circle cx="1.5" cy="1.5" r="1.5" transform="translate(0 19.458)"/><circle cx="1.5" cy="1.5" r="1.5" transform="translate(0 11.458)"/><path d="M37.141,30.062H15.532a1.5,1.5,0,1,1,0-3H37.141a1.5,1.5,0,1,1,0,3Z" transform="translate(-7.314 -7.992)"/><path d="M37.141,30.062H15.532a1.5,1.5,0,1,1,0-3H37.141a1.5,1.5,0,1,1,0,3Z" transform="translate(-7.314 -15.992)"/></g></svg>